<svg width="65" height="65" viewBox="0 0 65 65" fill="none" xmlns="http://www.w3.org/2000/svg">
<g clip-path="url(#clip0_37_205)">
<path d="M46.7654 40.8381L33.832 31.794V16.2499C33.832 15.5174 33.2326 14.918 32.5 14.918C31.7674 14.918 31.168 15.5174 31.168 16.2499V32.4999C31.168 32.9395 31.3811 33.3391 31.7408 33.5922L45.2469 43.0358C45.4734 43.1956 45.7398 43.2756 46.0061 43.2756C46.4191 43.2756 46.832 43.0758 47.0984 42.6895C47.5113 42.0901 47.3648 41.2643 46.7654 40.8381Z" fill="#7C3FC8"/>
<path d="M55.4631 9.53689C49.3094 3.3832 41.1578 0 32.5 0C23.8422 0 15.6906 3.3832 9.53689 9.53689C3.3832 15.6906 0 23.8422 0 32.5C0 41.1578 3.3832 49.3094 9.53689 55.4631C15.6906 61.6168 23.8422 65 32.5 65C41.1578 65 49.3094 61.6168 55.4631 55.4631C61.6168 49.3094 65 41.1578 65 32.5C65 23.8422 61.6168 15.6906 55.4631 9.53689ZM33.832 62.3094V56.875C33.832 56.1424 33.2326 55.543 32.5 55.543C31.7674 55.543 31.168 56.1424 31.168 56.875V62.3094C15.7705 61.6301 3.36988 49.2295 2.69057 33.832H8.125C8.85758 33.832 9.45697 33.2326 9.45697 32.5C9.45697 31.7674 8.85758 31.168 8.125 31.168H2.69057C3.36988 15.7705 15.7705 3.36988 31.168 2.69058V8.125C31.168 8.85758 31.7674 9.45697 32.5 9.45697C33.2326 9.45697 33.832 8.85758 33.832 8.125V2.69058C49.2295 3.36988 61.6301 15.7705 62.3094 31.168H56.875C56.1424 31.168 55.543 31.7674 55.543 32.5C55.543 33.2326 56.1424 33.832 56.875 33.832H62.3094C61.6301 49.2295 49.2295 61.6301 33.832 62.3094Z" fill="#7C3FC8"/>
</g>
<defs>
<clipPath id="clip0_37_205">
<rect width="65" height="65" fill="white"/>
</clipPath>
</defs>
</svg>
