<svg width="65" height="65" viewBox="0 0 65 65" fill="none" xmlns="http://www.w3.org/2000/svg">
<path d="M59.9947 8.13184H5.00527C2.24895 8.13184 0 10.3808 0 13.1371V51.8629C0 54.6192 2.24895 56.8681 5.00527 56.8681H59.9947C62.7511 56.8681 65 54.6192 65 51.8629V13.1371C65 10.3808 62.7511 8.13184 59.9947 8.13184ZM59.2679 11.8344L32.8428 34.4335L6.41772 11.8344H59.2679ZM61.2975 51.8629C61.2975 52.5759 60.7078 53.1656 59.9947 53.1656H5.00527C4.29219 53.1656 3.70253 52.5759 3.70253 51.8629V14.385L31.6361 38.2732C31.6498 38.2869 31.6772 38.3006 31.6909 38.3143C31.7046 38.328 31.7321 38.3418 31.7458 38.3555C31.7869 38.3829 31.8143 38.4103 31.8555 38.424C31.8692 38.4377 31.8829 38.4377 31.8966 38.4515C31.9515 38.4789 32.0063 38.5063 32.0612 38.5337C32.0749 38.5337 32.0886 38.5474 32.1023 38.5474C32.1435 38.5612 32.1846 38.5886 32.2395 38.6023C32.2532 38.6023 32.2806 38.616 32.2943 38.616C32.3354 38.6297 32.3766 38.6434 32.4177 38.6434C32.4314 38.6434 32.4589 38.6572 32.4726 38.6572C32.5137 38.6709 32.5686 38.6709 32.6097 38.6846C32.6234 38.6846 32.6371 38.6846 32.6508 38.6846C32.7057 38.6846 32.7743 38.6983 32.8291 38.6983C32.884 38.6983 32.9525 38.6983 33.0074 38.6846C33.0211 38.6846 33.0348 38.6846 33.0485 38.6846C33.0897 38.6846 33.1445 38.6709 33.1857 38.6572C33.1994 38.6572 33.2268 38.6434 33.2405 38.6434C33.2816 38.6297 33.3228 38.616 33.3639 38.616C33.3776 38.616 33.4051 38.6023 33.4188 38.6023C33.4599 38.5886 33.5011 38.5749 33.5559 38.5474C33.5696 38.5474 33.5833 38.5337 33.597 38.5337C33.6519 38.5063 33.7067 38.4789 33.7616 38.4515C33.7753 38.4377 33.789 38.4377 33.8027 38.424C33.8439 38.3966 33.8713 38.3829 33.9124 38.3555C33.9262 38.3418 33.9536 38.328 33.9673 38.3143C33.981 38.3006 34.0084 38.2869 34.0222 38.2732L61.2975 14.9747V51.8629Z" fill="#7C3FC8"/>
</svg>
