<svg width="65" height="65" viewBox="0 0 65 65" fill="none" xmlns="http://www.w3.org/2000/svg">
<path d="M50.7812 26.4062C50.7812 21.5578 48.8552 16.9079 45.4268 13.4795C41.9984 10.0511 37.3485 8.125 32.5 8.125C27.6515 8.125 23.0016 10.0511 19.5732 13.4795C16.1448 16.9079 14.2188 21.5578 14.2188 26.4062C14.2188 33.9056 20.2191 43.68 32.5 55.3881C44.7809 43.68 50.7812 33.9056 50.7812 26.4062ZM32.5 60.9375C17.6028 47.3972 10.1562 35.8841 10.1562 26.4062C10.1562 20.4803 12.5103 14.7971 16.7006 10.6068C20.8908 6.41657 26.5741 4.0625 32.5 4.0625C38.4259 4.0625 44.1092 6.41657 48.2994 10.6068C52.4897 14.7971 54.8438 20.4803 54.8438 26.4062C54.8438 35.8841 47.3972 47.3972 32.5 60.9375Z" fill="#7C3FC8"/>
<path d="M32.5 28.4375C33.5774 28.4375 34.6108 28.0095 35.3726 27.2476C36.1345 26.4858 36.5625 25.4524 36.5625 24.375C36.5625 23.2976 36.1345 22.2642 35.3726 21.5024C34.6108 20.7405 33.5774 20.3125 32.5 20.3125C31.4226 20.3125 30.3892 20.7405 29.6274 21.5024C28.8655 22.2642 28.4375 23.2976 28.4375 24.375C28.4375 25.4524 28.8655 26.4858 29.6274 27.2476C30.3892 28.0095 31.4226 28.4375 32.5 28.4375ZM32.5 32.5C30.3451 32.5 28.2785 31.644 26.7548 30.1202C25.231 28.5965 24.375 26.5299 24.375 24.375C24.375 22.2201 25.231 20.1535 26.7548 18.6298C28.2785 17.106 30.3451 16.25 32.5 16.25C34.6549 16.25 36.7215 17.106 38.2452 18.6298C39.769 20.1535 40.625 22.2201 40.625 24.375C40.625 26.5299 39.769 28.5965 38.2452 30.1202C36.7215 31.644 34.6549 32.5 32.5 32.5ZM54.4375 44.6875L60.9375 60.9375H42.6562V56.875H22.3438V60.9375H4.0625L10.5625 44.6875H54.4375ZM50.0622 44.6875H14.9378L10.0628 56.875H54.9372L50.0622 44.6875Z" fill="#7C3FC8"/>
</svg>
