<svg width="65" height="65" viewBox="0 0 65 65" fill="none" xmlns="http://www.w3.org/2000/svg">
<g clip-path="url(#clip0_38_246)">
<path d="M13.245 43.2076C19.6561 50.8713 27.3737 56.9053 36.1822 61.1749C39.5359 62.7642 44.021 64.6498 49.0179 64.9731C49.3277 64.9865 49.624 65 49.9338 65C53.2875 65 55.9812 63.8417 58.1766 61.4577C58.1901 61.4443 58.217 61.4173 58.2305 61.3904C59.0117 60.4476 59.9006 59.599 60.8299 58.6966C61.463 58.0905 62.1095 57.4575 62.729 56.811C65.5979 53.821 65.5979 50.0228 62.7021 47.127L54.6074 39.0323C53.2336 37.6046 51.5904 36.8504 49.8664 36.8504C48.1424 36.8504 46.4858 37.6046 45.0715 39.0189L40.2497 43.8407C39.8053 43.5847 39.3473 43.3558 38.9163 43.1403C38.3776 42.8709 37.8793 42.615 37.4348 42.3322C33.044 39.5441 29.0573 35.9076 25.2456 31.2339C23.3196 28.7961 22.0266 26.7489 21.1242 24.6612C22.3902 23.5164 23.5755 22.3177 24.7203 21.1459C25.1244 20.7283 25.5419 20.3108 25.9594 19.8933C27.4141 18.4387 28.1953 16.7551 28.1953 15.0445C28.1953 13.334 27.4275 11.6504 25.9594 10.1958L21.9458 6.18214C21.4744 5.71073 21.0299 5.2528 20.572 4.78139C19.683 3.86552 18.7537 2.92271 17.8378 2.07418C16.4505 0.713842 14.8208 0 13.0968 0C11.3863 0 9.74312 0.713842 8.30197 2.08765L3.26467 7.12495C1.43293 8.95669 0.395836 11.179 0.180336 13.7516C-0.0755692 16.9706 0.517054 20.3916 2.05249 24.5265C4.40951 30.9242 7.96525 36.8639 13.245 43.2076ZM3.4667 14.0344C3.62833 12.2431 4.31523 10.748 5.60823 9.45503L10.6186 4.44467C11.3998 3.69043 12.2618 3.29983 13.0968 3.29983C13.9184 3.29983 14.7535 3.69043 15.5212 4.47161C16.4236 5.30667 17.2721 6.18214 18.188 7.11148C18.6459 7.58288 19.1173 8.05429 19.5887 8.53916L23.6024 12.5528C24.4375 13.3879 24.8685 14.2364 24.8685 15.0715C24.8685 15.9065 24.4375 16.7551 23.6024 17.5901C23.1849 18.0077 22.7674 18.4387 22.3498 18.8562C21.0972 20.1223 19.9255 21.321 18.6325 22.4658C18.6055 22.4927 18.5921 22.5062 18.5651 22.5332C17.4472 23.6511 17.6223 24.7151 17.8917 25.5232C17.9052 25.5636 17.9186 25.5906 17.9321 25.631C18.9692 28.1227 20.4103 30.4932 22.6596 33.3216C26.7002 38.305 30.9563 42.1705 35.6435 45.1471C36.2226 45.5242 36.8422 45.8206 37.4213 46.1169C37.9601 46.3862 38.4584 46.6421 38.9029 46.925C38.9568 46.9519 38.9972 46.9789 39.051 47.0058C39.4955 47.2348 39.9265 47.3425 40.3575 47.3425C41.435 47.3425 42.1354 46.6556 42.3643 46.4266L47.4016 41.3893C48.1828 40.6082 49.0314 40.1906 49.8664 40.1906C50.89 40.1906 51.7251 40.8237 52.2504 41.3893L60.372 49.4975C61.9883 51.1138 61.9748 52.8647 60.3316 54.5752C59.7659 55.1813 59.1733 55.7605 58.5403 56.3666C57.5975 57.2824 56.6142 58.2252 55.7253 59.2893C54.1764 60.9594 52.3312 61.7406 49.9472 61.7406C49.7183 61.7406 49.4758 61.7271 49.2469 61.7136C44.8291 61.4308 40.7212 59.7068 37.6368 58.2387C29.2593 54.1846 21.9054 48.4335 15.804 41.1334C10.7802 35.086 7.39957 29.4561 5.16376 23.4221C3.77648 19.7182 3.2512 16.7416 3.4667 14.0344Z" fill="#7C3FC8"/>
</g>
<defs>
<clipPath id="clip0_38_246">
<rect width="65" height="65" fill="white"/>
</clipPath>
</defs>
</svg>
